<svg xmlns="http://www.w3.org/2000/svg" xmlns:xlink="http://www.w3.org/1999/xlink" width="500" zoomAndPan="magnify" viewBox="0 0 375 374.999991" height="500" preserveAspectRatio="xMidYMid meet" version="1.0"><defs><clipPath id="id1"><path d="M 54.882812 140 L 348 140 L 348 232 L 54.882812 232 Z M 54.882812 140 " clip-rule="nonzero"/></clipPath><clipPath id="id2"><path d="M 54.882812 17.117188 L 348 17.117188 L 348 108 L 54.882812 108 Z M 54.882812 17.117188 " clip-rule="nonzero"/></clipPath><clipPath id="id3"><path d="M 54.882812 266 L 348 266 L 348 357.617188 L 54.882812 357.617188 Z M 54.882812 266 " clip-rule="nonzero"/></clipPath></defs><g clip-path="url(#id1)"><path fill="rgb(96.859741%, 59.21936%, 11.759949%)" d="M 334.0625 203.394531 C 245.632812 203.394531 157.203125 203.394531 68.773438 203.394531 C 73.402344 208.011719 78.03125 212.632812 82.65625 217.253906 C 82.65625 196.238281 82.65625 175.230469 82.65625 154.21875 C 78.03125 158.839844 73.402344 163.460938 68.773438 168.082031 C 157.203125 168.082031 245.632812 168.082031 334.0625 168.082031 C 329.433594 163.460938 324.804688 158.839844 320.179688 154.21875 C 320.179688 175.234375 320.179688 196.242188 320.179688 217.253906 C 320.179688 235.128906 347.941406 235.128906 347.941406 217.253906 C 347.941406 196.238281 347.941406 175.230469 347.941406 154.21875 C 347.941406 146.660156 341.628906 140.359375 334.0625 140.359375 C 245.632812 140.359375 157.207031 140.359375 68.777344 140.359375 C 61.210938 140.359375 54.894531 146.660156 54.894531 154.21875 C 54.894531 175.234375 54.894531 196.242188 54.894531 217.253906 C 54.894531 224.804688 61.207031 231.113281 68.777344 231.113281 C 157.207031 231.113281 245.632812 231.113281 334.0625 231.113281 C 351.964844 231.117188 351.964844 203.394531 334.0625 203.394531 Z M 334.0625 203.394531 " fill-opacity="1" fill-rule="nonzero"/></g><g clip-path="url(#id2)"><path fill="rgb(96.859741%, 59.21936%, 11.759949%)" d="M 334.0625 80.148438 C 245.632812 80.148438 157.203125 80.148438 68.773438 80.148438 C 73.402344 84.769531 78.03125 89.390625 82.65625 94.011719 C 82.65625 73 82.65625 51.992188 82.65625 30.976562 C 78.03125 35.597656 73.402344 40.21875 68.773438 44.835938 C 157.203125 44.835938 245.632812 44.835938 334.0625 44.835938 C 329.433594 40.21875 324.804688 35.597656 320.179688 30.976562 C 320.179688 51.988281 320.179688 72.996094 320.179688 94.011719 C 320.179688 111.886719 347.941406 111.886719 347.941406 94.011719 C 347.941406 73 347.941406 51.992188 347.941406 30.976562 C 347.941406 23.417969 341.628906 17.117188 334.0625 17.117188 C 245.632812 17.117188 157.203125 17.117188 68.773438 17.117188 C 61.207031 17.117188 54.894531 23.417969 54.894531 30.976562 C 54.894531 51.988281 54.894531 72.996094 54.894531 94.011719 C 54.894531 101.570312 61.207031 107.871094 68.773438 107.871094 C 157.203125 107.871094 245.632812 107.871094 334.0625 107.871094 C 351.964844 107.871094 351.964844 80.148438 334.0625 80.148438 Z M 334.0625 80.148438 " fill-opacity="1" fill-rule="nonzero"/></g><g clip-path="url(#id3)"><path fill="rgb(96.859741%, 59.21936%, 11.759949%)" d="M 334.0625 329.894531 C 245.632812 329.894531 157.203125 329.894531 68.773438 329.894531 C 73.402344 334.515625 78.03125 339.132812 82.65625 343.753906 C 82.65625 322.746094 82.65625 301.730469 82.65625 280.71875 C 78.03125 285.339844 73.402344 289.960938 68.773438 294.582031 C 157.203125 294.582031 245.632812 294.582031 334.0625 294.582031 C 329.433594 289.960938 324.804688 285.339844 320.179688 280.71875 C 320.179688 301.730469 320.179688 322.746094 320.179688 343.753906 C 320.179688 361.628906 347.941406 361.628906 347.941406 343.753906 C 347.941406 322.746094 347.941406 301.730469 347.941406 280.71875 C 347.941406 273.167969 341.628906 266.859375 334.0625 266.859375 C 245.632812 266.859375 157.207031 266.859375 68.777344 266.859375 C 61.210938 266.859375 54.894531 273.167969 54.894531 280.71875 C 54.894531 301.730469 54.894531 322.746094 54.894531 343.753906 C 54.894531 351.304688 61.207031 357.613281 68.777344 357.613281 C 157.207031 357.613281 245.632812 357.613281 334.0625 357.613281 C 351.964844 357.617188 351.964844 329.894531 334.0625 329.894531 Z M 334.0625 329.894531 " fill-opacity="1" fill-rule="nonzero"/></g></svg>